<svg xmlns="http://www.w3.org/2000/svg" xmlns:svg="http://www.w3.org/2000/svg" id="svg2" width="256" height="256" version="1.1"><metadata id="metadata7"/><g id="layer1" transform="translate(0,-796.36218)"><g id="g3974" transform="translate(-66.997434,397.46792)"><path id="path3001" d="m 527.29963,247.77568 c 0,45.46819 -38.89442,82.32743 -86.87312,82.32743 -47.97869,0 -86.87311,-36.85924 -86.87311,-82.32743 0,-45.46818 38.89442,-82.32743 86.87311,-82.32743 47.9787,0 86.87312,36.85925 86.87312,82.32743 z" transform="matrix(0.69066246,0,0,0.72879719,-167.23612,404.75838)"/><path id="path3001-3" d="m 527.29963,247.77568 c 0,45.46819 -38.89442,82.32743 -86.87312,82.32743 -47.97869,0 -86.87311,-36.85924 -86.87311,-82.32743 0,-45.46818 38.89442,-82.32743 86.87311,-82.32743 47.9787,0 86.87312,36.85925 86.87312,82.32743 z" transform="matrix(0.69066246,0,0,-0.7287971,-51.365802,649.42446)"/><path id="path3861" d="m 87.52923,419.89141 214.94154,214.94154 -1.09664,-1.09664" style="fill:none;stroke:#000;stroke-width:35.05846024;stroke-linecap:butt;stroke-linejoin:miter;stroke-miterlimit:4;stroke-opacity:1;stroke-dasharray:none"/></g></g></svg>